/* XPM */
static char *cb8621d1f0f34010a3362485f3ffcf13[] = {
/* columns rows colors chars-per-pixel */
"49 41 89 1 ",
"  c None",
". c #E21664",
"X c #E31966",
"o c #E41D69",
"O c #E5226D",
"+ c #E62770",
"@ c #E62C74",
"# c #E82C73",
"$ c #E73177",
"% c #E93177",
"& c #E9347A",
"* c #EB3A7E",
"= c #FBA97F",
"- c #FDB57D",
"; c #FFC47A",
": c #FFC979",
"> c #EB3E81",
", c #EE4686",
"< c #EE4887",
"1 c #ED4C8A",
"2 c #EE518E",
"3 c #F1568B",
"4 c #EE5591",
"5 c #EF5C95",
"6 c #F05792",
"7 c #F05B95",
"8 c #F05F98",
"9 c #F26689",
"0 c #F16A8D",
"q c #F57B87",
"w c #EE6399",
"e c #F16390",
"r c #F0649B",
"t c #F1699F",
"y c #F47894",
"u c #F26EA2",
"i c #F274A5",
"p c #F37BAA",
"a c #F79499",
"s c #FBA58C",
"d c #F9A49C",
"f c #FAA99C",
"g c #FBB49E",
"h c #FCBC9F",
"j c #F381AE",
"k c #F486B1",
"l c #F48BB4",
"z c #F593B9",
"x c #F69ABE",
"c c #FCCE85",
"v c #FFCE84",
"b c #FDCE89",
"n c #FFD18A",
"m c #FFD491",
"M c #FFDA9E",
"N c #FFDA9F",
"B c #FDC0A0",
"V c #FFD3A3",
"C c #FDDAA1",
"Z c #FDD9A3",
"A c #FDDAA2",
"S c #FDDAA3",
"D c #FFDBA2",
"F c #FFDCA4",
"G c #F69DC0",
"H c #F69FC1",
"J c #F7A2C3",
"K c #F7A7C5",
"L c #F8B0CC",
"P c #F9B8D1",
"I c #F9B9D1",
"U c #F9BBD3",
"Y c #FACBDE",
"T c #FBCFE0",
"R c #FBD5E4",
"E c #FCDDE9",
"W c #FCDFEB",
"Q c #FCE0EB",
"! c #FDE7F0",
"~ c #FEECF3",
"^ c #FEEEF4",
"/ c #FEF0F5",
"( c #FEF3F7",
") c #FFF7FA",
"_ c #FFF9FB",
"` c #FFF9FC",
"' c #FFFAFC",
"] c #FFFDFE",
"[ c white",
/* pixels */
"                    wwwwwwwww                    ",
"                wwrtppurrrrrrrrww                ",
"              wwjP![[[[!Grr1>rrrrrw              ",
"            wriT[[[[[[[[[xrX.,rrrrrrw            ",
"           wrj([[[[[[[[[[Pr$O4rrrrrrrrw          ",
"         wrrt~[[[[[[[[[[[lrrrrrrrrrrrrr5         ",
"        wrrrk[[[[[[[[[[[Lrrrrrrrrrrrrrrr4        ",
"       wrlPki`[[[[[[[[^zrrrrrrrrrrrrrrrrr1       ",
"      wuY[[PrkE[[[[`RGtrrrrrrrrrr1&@&,rrr8<      ",
"     wtE[[_prrrikkptrrrrrrrrrrrr@.....O5rr2<     ",
"     wP[[`zrrrrrrrrrrrrrrrrrrrr&.......Orrr,1    ",
"    wrQ[Ejrrrrrrrrrrrrrrrrrrrr4.........,rr2,    ",
"   wrriprrrrrrrrrrrrr4&rrrrrrr>.........@rr6,<   ",
"   wrrrrr418rrrrrrrrr,X5rrrrrr&.........Orr7,,2  ",
"  wrrrrr&..o4rrrrrrrrrrrrrrrrr>.........@rrr,,<  ",
"  wrrrr2....@rrrrrrrrrrrrrrrrr4.........,rrr,,,  ",
"  rrrrr<....Orrrrrrrrrrrrrrrrrr$.......Orrr7,,,1 ",
" 5rrrrr5X...>rrrrrrrrrrrrrrrrrrr@.....O5rrr<o*,, ",
" <rrrrrr2@O*rrrr5*+O&4rrrrrrrrrrr1&@$,rrrrr,o&,, ",
" ,6rrrrrrrrrrrr4o.....<rrrrrrrrrrrrrrrrrrr2,,,,,1",
" ,,7rrrrrrrrrrrO......X5rrrrrrrrrrrrrrrrr4,,,,,,1",
"2,,*1rrrrrrrrr2........*rrrrrrrrrrrrrrrr4,,,,,,,<",
"1,O..*rrrrrrrr,........$rrrrrrrrrrrrrr71,,,,,,,,<",
"1>...O<7rrrrrr<........&rrrrrrrrrrrr82,,,,,,,<r<,",
"1,X..#,,<4rrrr5X.......1rrrrrrrrrr61,,,,,,,,z([k,",
"2,>##,,,,,,<278,......@rrrrrrr741,&+#>,,,,,P[[[r1",
" <,,,,,,,,,,,,,,&X...%444211,,,,,%...X,,,,J[[[z,2",
"  ,,,,,,,,,,,,,,,,**,,,,,,,,,,,,,o....#,,<)[_l,1 ",
"   <,,,,,,,,,,,,,,,,,,,,,,,,,,,,,X....#,,,KJ7,1  ",
"    1,,,,,,,,,,,,,,,,,,,,,,,,,,,,#....*,,,,,<    ",
"      21,,,,,,,,,,,,,,,,,,,,,,,,,,#oO*,,,,1      ",
"         11<,,,,,,,,,,,,,,,,,,,,,,,,,,<1         ",
"           Ahaye31,,,,,,,,,,,,,<139q0            ",
"           AFFFFFFFVBgfdddds=-;:::::             ",
"           AFFFFFFFFFFFFFFFn::::::::             ",
"           AFFFFFFFFFFFFFFFc::::::::             ",
"           AFFFFFFFFFFFFFFA:::::::::             ",
"           AFFFFFFFFFFFFFFm:::::::::             ",
"           AFFFFFFFFFFFFFN::::::::::             ",
"           AFFFFFFFFFFFFN:::::::::::             ",
"            AAAAAAAAAAAAbccccccccccc             "
};
