/* XPM */
static char *c0a15124a5dd4bcdb58ab96208953808[] = {
/* columns rows colors chars-per-pixel */
"77 77 61 1 ",
"  c #010100",
". c #0A0704",
"X c #0E0905",
"o c #110B06",
"O c #170F08",
"+ c #1C120A",
"@ c #21150B",
"# c #25180D",
"$ c #331F0E",
"% c #2E1E10",
"& c #352213",
"* c #3D2612",
"= c #442A16",
"- c #492D17",
"; c #442C18",
": c #4A2E18",
"> c #4F311A",
", c #53331C",
"< c #58361F",
"1 c #5A381F",
"2 c #5C3A20",
"3 c #633E25",
"4 c #664025",
"5 c #694227",
"6 c #6E4529",
"7 c #714729",
"8 c #73492B",
"9 c #7A4D2E",
"0 c #7D502C",
"q c #83542F",
"w c #855431",
"e c #885632",
"r c #8E5A33",
"t c #925D34",
"y c #945E36",
"u c #976136",
"i c #996236",
"p c #9C6437",
"a c #9A6238",
"s c #9C6338",
"d c #9D6438",
"f c #A06639",
"g c #A2683A",
"h c #A66A3B",
"j c #A76C3B",
"k c #A4693C",
"l c #AB6E3E",
"z c #AD6F3D",
"x c #AE703E",
"c c #B0713F",
"v c #AF7140",
"b c #B07241",
"n c #B37441",
"m c #B47442",
"M c #B57643",
"N c #B67644",
"B c #B87745",
"V c #BB7A47",
"C c #BD7B49",
"Z c #BF7D4B",
"A c #C07E4B",
/* pixels */
"33333333333333333333333333333333333333333333333333333333333333333333333333333",
"33333333333333333333333333333333333333333333333333333333333333333333333333333",
"337ehlbbbbbvvvbbbbbbbbbbvvbbbbbbbbbbvvbbbbbbbbbbvvbbbbbbbbbbvvbbbbbbbbbkhq833",
"33e3txBCCCCCCCCCCCCCCCCCCCCCCCCCCCCCCCCCCCCCCCCCCCCCCCCCCCCCCCCCCCCCCCMxw3e33",
"33hr3txxxxxxxxxxxxxxxxxxxxxxxxxxxxxxxxxxxxxxxxxxxxxxxxxxxxxxxxxxxxxxxxxw3ud33",
"33vbr3txxxxq#>zxxxxxxxxxxxxxxxxxxxxxxxxxxxxxxxxxxxxxxxxxxxxxxxh&%ixxxxw3uli33",
"33bCxr3txxx%  rxxxxxxxxxxxxxxxxxxxxxxxxxxxxxxxxxxxxxxxxxxxxxxx6  ,xxxw3uxsi33",
"33bCxxr3txx2 Ohxxxxxxxxxxxxxxxxxxxxxxxxxxxxxxxxxxxxxxxxxxxxxxxt. 9xxw3uxxai33",
"33bCxxxr3txxilxxxxxxxxxxxxxxxxxxxxxxxxxxxxxxxxxxxxxxxxxxxxxxxxxgdxxw3uxxxai33",
"33bCxxxxr3tlffffffffffffffffffffffffffffffffffffffffffffffffffffgxw3uxxxxai33",
"33bCxy3ixr3thdddddddddddddddddddddddddddddddddddddddddddddddddddlw3uxr4gxai33",
"33bCzo +xzr3333333333455555555555555555555555555555555533333333333uxg. &xai33",
"33bCzX +xdl3iggggghvk5<*********=*************=*******26fgggggggt3cVf  %xai33",
"33bCxr<txsf3gxxxxxxNAl53555555<3875555555553<6955555536vZnxxxxxxi4NVxq1pxai33",
"33bCxxxxxsf3gxz,%rxxNAl569999938rw99999999983wy9999966vZnxxh*&fxi4NVxxxxxai33",
"33bCxxxxxsf3gxe  &xxxNAl56999938rw99999999983wy999966vZnxxx4  2xi4NVxxxxxai33",
"33bCxxxxxsf3gxfX 2xxxxNAl5699938rw99999999983wy99966vZnxxxxw  0xi4NVxxxxxai33",
"33bCxxxxxsf3gxxgtxxxxxxNAl569938rw99999999983wy9966vZnxxxxxxiixxi4NVxxxxxai33",
"33bCxxxxxsf3gxxxxxxxxxxxNAl56938rw99999999983wy966vZnxxxxxxxxxxzi4NVxxxxxai33",
"33bCxxxxxsf3ggxxxxxxxxxxxNAl5638rw99999999983wy66vZnxxxxxxxxxxzai4NVxxxxxai33",
"33bCxxxxxsf3dadxxxxxxxxxxxNAl538rw99999999983w86vZnxxxxxxxxxxzait4NVxxxxxai33",
"33bCxxxxxsf35fidxxxxxxxxxxxNAl56rw9999999998366vZnxxxxxxxxxxzaia46NVxxxxxai33",
"33bCxxxxxsf5<5fidxxxxxxxxxxxNAl59w999999999836vZnxxxxxxxxxxzaia3<8NVxxxxxai33",
"33bCxxxxxsf5*>5fidxxxxxxxxxxxNAl5899999999956vZnxxxxxxxxxxzaia3-=8NVxxxxxai33",
"33bCxxxxxsf5,$>5fidxxxxxxxxxxxNAl56999999966vZMxxxxxxxxxxzaia3-$28NVxxxxxai33",
"33bCxxxxxsf59,$>5fidxxxxxxxxxxxMAl569999966vZMxxxxxxxxxxzaia3-$298NVxxxxxai33",
"33bCxxxxxsf599,$:5fidxxxxxxxxxxxMAl5699966vZMxxxxxxxxxxzaia3:$2998NVxxxxxai33",
"33bCxxxxxsf5999,$:5fidxxxxxxxxxxxMAl56966vZMxxxxxxxxxxzaia3>$29998NVxxxxxai33",
"33bCxxxxxsf59999:$,5fidxxxxxxxxxxxMAl556vZMxxxxxxxxxxzaia3-$399998NVxxxxxai33",
"33bCxxxxxsf599996:$<5fidxxxxxxxxxxxMZk8vZMxxxxxxxxxxzaia3=$4e99998NVxxxxxai33",
"33bCxxxxxsf5999965<$>5fidxxxxxxxxxxxbhvZMxxxxxxxxxxzaia3-$<re99998NVxxxxxai33",
"33bCxxxxxsf5999965w1$>5fidxxxxxxxxxxjbZMxxxxxxxxxxzaia3-$,7re99998NVxxxxxai33",
"33bCxxxxxsf5999965wr,$>5fidxxxxxxxxjbZMxxxxxxxxxxzaia3-$257re99998NVxxxxxai33",
"33bCxxxxxsf5999965wr9,$>5fidxxxxxxjbZMxxxxxxxxxxzsia3-$2957re99998NVxxxxxai33",
"33bCxxxxxsf5999965wr99,$>5fidxxxxlbZMxxxxxxxxxxzsia3-$29957re99998NVxxxxxai33",
"33bCxxxxxsf5999965wr999,$>5fidxxlbZMxxxxxxxxxxzsia3-$299957re99998NVxxxxxai33",
"33bCxxxxxsf5999965wr9999,$>5fikhbAMxxxxxxxxxxxsia3-$1999957re99998NVxxxxxai33",
"33bCxxxxxsf5999965wr99999,$>5ghbAMxxxxxxxxxxxsia3-$19999957re99998NVxxxxxai33",
"33bCxxxxxsf5999965wr999999,$28vAMxxxxxxxxxxxdid6<$199999957re99998NVxxxxxai33",
"33bCxxxxxsf5999965wr999999926vAMxxxxxxxxxxxdihzl53999999957re99998NVxxxxxai33",
"33bCxxxxxsf5999965wr99999966vAMxxxxxxxxxxxdifzbZl5699999957re99998NVxxxxxai33",
"33bCxxxxxsf5999965wr9999966vAMxxxxxxxxxxxdiflxxMZl569999957re99998NVxxxxxai33",
"33bCxxxxxsf5999965wr999966vAMxxxxxxxxxxxdigzxxxxMZl56999957re99998NVxxxxxai33",
"33bCxxxxxsf5999965wr99966vAMxxxxxxxxxxxdihzxxxxxxMZl5699957re99998NVxxxxxai33",
"33bCxxxxxsf5999965wr9966vAMxxxxxxxxxxxdihzxxxxxxxxMZl569957re99998NVxxxxxai33",
"33bCxxxxxsf5999965wr966vAMxxxxxxxxxxxdihzxxxxxxxxxxMZl56957re99998NVxxxxxai33",
"33bCxxxxxsf5999965wr66vAMxxxxxxxxxxxdidlgxxxxxxxxxxxMZl5657re99998NVxxxxxai33",
"33bCxxxxxsf5999965w86vAMxxxxxxxxxxxdia6fisxxxxxxxxxxxMZl537re99998NVxxxxxai33",
"33bCxxxxxsf599996576vAMxxxxxxxxxxxdia3<5fiszxxxxxxxxxxMZl55re99998NVxxxxxai33",
"33bCxxxxxsf59999636vANxxxxxxxxxxxdia3:$,5fiszxxxxxxxxxxnZl59e99998NVxxxxxai33",
"33bCxxxxxsf5999946vANxxxxxxxxxxxdia3:$=$,5fiszxxxxxxxxxxnZl5899998NVxxxxxai33",
"33bCxxxxxsf599966vANxxxxxxxxxxxdia3:$<9,$,5fiazxxxxxxxxxxnZl569998NVxxxxxai33",
"33bCxxxxxsf59966vANxxxxxxxxxxxdia3:$<999,$,5fiazxxxxxxxxxxnZl56998NVxxxxxai33",
"33bCxxxxxsf5966vANxxxxxxxxxxxdia3:$<99999,$>5fiazxxxxxxxxxxnZl5698NVxxxxxai33",
"33bCxxxxxsf566vANxxxxxxxxxxxdia3>$<9999999,$:5fiazxxxxxxxxxxnZl568NVxxxxxai33",
"33bCxxxxxsf36vANxxxxxxxxxxxdia3-$1999999999>$,5fiazxxxxxxxxxxnZl55NVxxxxxai33",
"33bCxxxxxsf3hANxxxxxxxxxxxdia3=$2w9999999998:$<5fiazxxxxxxxxxxnZy4NVxxxxxai33",
"33bCxxxxxsf3lNxxxxxxxxxxxdia3:$,rw99999999983<$>5fiazxxxxxxxxxxbi4NVxxxxxai33",
"33bCxxxxxsf3gxxxxxxxxxxxdia3:$:8rw99999999983w1$>5fiazxxxxxxxxxxi4NVxxxxxai33",
"33bCxxxxxsf3gxx4;ixxxxxdia3-$<38rw99999999983wy,$>5fiazxxxxl,>hxi4NVxxxxxai33",
"33bCxxxxxsf3gxr  &xxxxdia3-$<938rw99999999983wy9,$>5fiazxxx5  2xi4NVxxxxxai33",
"33bCxxxxxsf3gxp. >xxxdia3-$<9938rw99999999983wy99,$>5fiazxx0  8xi4NVxxxxxai33",
"33bCxxxxxsf3gxxu0zxxdia3-$<99938rw99999999983wy999,$>5fiazxxewxxi4NVxxxxxai33",
"33bCx,X2xsf3gxxxxxxhda3-$<999938rw99999999983wy9999,$>5fiazxxxxxi4NVz*X6xai33",
"33bCz  .xdl3tiiiiiiit41=<8999858ew988899988859r98899<=25uiiiiiiie3bVi  @xai33",
"33bCx= >xzw3333333333677777777777777777777777777777777753333333333rcz% 3xai33",
"33bCxxlxxw3ubVVVVVVVVVVVVVVVVVVVVVVVVVVVVVVVVVVVVVVVVVVVVVVVVVVVMr3rxxlxxai33",
"33bCxxxxw3uxNVVVVVVVVVVVVVVVVVVVVVVVVVVVVVVVVVVVVVVVVVVVVVVVVVVVBbr3rxxxxai33",
"33bCxxxw3uxp,8xxxxxxxxxxxxxxxxxxxxxxxxxxxxxxxxxxxxxxxxxxxxxxxxz31hxr3rxxxai33",
"33bVxxw3uxx&  uxxxxxxxxxxxxxxxzzxxxxxxxxxxxxxxxxxxxxxxzxxxxxxx8  1xxr3rxxdi33",
"33vcxw3uxxx=  dxxxzxxxxxxxxxxxzzxxxxxxxxxzzxxxxxxxxxxxzzxxxxxxq  4xxxr3rxzi33",
"33hxw3uxxxxl6rxxxxzxxxxxxxxxxxzzxxxxxxxxxzzzxxxxxxxxxxzzxxxxxxxq9zxxxxr3rxd33",
"33hw3uxxxxxxxxxxxxxxxxxxxxxxxxxxxxxxxxxxxxxxxxxxxxxxxxxxxxxxxxxxxxxxxxxr3rd33",
"33q3uzdiiiiiiiiiiiiiiiiiiiiiiiiiiiiiiiiiiiiiiiiiiiiiiiiiiiiiiiiiiiiiiihxr3w33",
"338ediiiiiiiiiiiiiiiiiiiiiiiiiiiiiiiiiiiiiiiiiiiiiiiiiiiiiiiiiiiiiiiiiiddw833",
"33333333333333333333333333333333333333333333333333333333333333333333333333333",
"33333333333333333333333333333333333333333333333333333333333333333333333333333"
};
