/* XPM */
static char *f374127b8a084ced93d80e623122d230[] = {
/* columns rows colors chars-per-pixel */
"128 128 80 1 ",
"  c #63391B",
". c #6B3D1C",
"X c #6F401D",
"o c #74431E",
"O c #79451F",
"+ c #7B4720",
"@ c #7E4922",
"# c #734628",
"$ c #78492C",
"% c #726126",
"& c #716A26",
"* c #7E772F",
"= c #7C7C2E",
"- c #7E6331",
"; c #7F7530",
": c #824C26",
"> c #854F28",
", c #87502A",
"< c #8A532D",
"1 c #814F32",
"2 c #845435",
"3 c #8E5631",
"4 c #875F36",
"5 c #885B37",
"6 c #8A5639",
"7 c #8D583A",
"8 c #905732",
"9 c #905833",
"0 c #985D37",
"q c #945D3E",
"w c #995E3A",
"e c #856335",
"r c #826C33",
"t c #9D613C",
"y c #807231",
"u c #A1643F",
"i c #9C6241",
"p c #A36542",
"a c #A76844",
"s c #AA6B46",
"d c #AC6C48",
"f c #718426",
"g c #748F27",
"h c #7A842C",
"j c #768D29",
"k c #78892B",
"l c #6F9724",
"z c #749527",
"x c #709D25",
"c c #749228",
"v c #6FA124",
"b c #71A324",
"n c #73A424",
"m c #74A524",
"M c #78A724",
"N c #7AA925",
"B c #7CAA25",
"V c #7FAC25",
"C c #83AF25",
"Z c #84B026",
"A c #88B226",
"S c #8BB526",
"D c #8CB526",
"F c #93BA27",
"G c #94BB27",
"H c #95BC27",
"J c #98BE27",
"K c #9BBF28",
"L c #9BC028",
"P c #9CC028",
"I c #A0C328",
"U c #A3C528",
"Y c #A6C728",
"T c #A7C829",
"R c #ABCB29",
"E c #ADCC29",
"W c #B0CE29",
"Q c #B3D02A",
"! c #C4DC55",
"~ c #C6DE5C",
/* pixels */
"~~~~~~~~~~~~~~~~~~~~~~~~~~~~~~~~~~~~~~~~~~~~~~~~~~~~~~~~~~~~~~~~~~~~~~~~~~~~~~~~~~~~~~~~~~~~~~~~~~~~~~~~~~~~~~~~~~~~~~~~~~~~~~~~",
"~~~~~~~~~~~~~~~~~~~~~~~~~~~~~~~~~~~~~~~~~~~~~~~~~~~~~~~~~~~~~~~~~~~~~~~~~~~~~~~~~~~~~~~~~~~~~~~~~~~~~~~~~~~~~~~~~~~~~~~~~~~~~~~~",
"~~~~~~~~~~~~~~~~~~~~~~~~~~~~~~~~~~~~~~~~~~~~~~~~~~~~~~~~~~~~~~~~~~~~~~~~~~~~~~~~~~~~~~~~~~~~~~~~~~~~~~~~~~~~~~~~~~~~~~~~~~~~~~~~",
"~~~~~~~~~~~~~~~~~~~~~~~~~~~~~~~~~~~~~~~~~~~~~~~~~~~~~~~~~~~~~~~~~~~~~~~~~~~~~~~~~~~~~~~~~~~~~~~~~~~~~~~~~~~~~~~~~~~~~~~~~~~~~~~~",
"~~~~~~~~~~~~~~~~~~~~~~~~~~~~~~~~~~~~~~~~~~~~~~~~~~~~~~~~~~~~~~~~~~~~~~~~~~~~~~~~~~~~~~~~~~~~~~~~~~~~~~~~~~~~~~~~~~~~~~~~~~~~~~~~",
"~~~~~~~~~~~~~~~~~~~~~~~~~~~~~~~~~~~~~~~~~~~~~~~~~~~~~~~~~~~~~~~~~~~~~~~~~~~~~~~~~~~~~~~~~~~~~~~~~~~~~~~~~~~~~~~~~~~~~~~~~~~~~~~~",
"~~~~~~~~~~~~~~~~~~~~~~~~~~~~~~~~~~~~~~~~~~~~~~~~~~~~~~~~~~~~~~~~~~~~~~~~~~~~~~~~~~~~~~~~~~~~~~~~~~~~~~~~~~~~~~~~~~~~~~~~~~~~~~~~",
"!!!!!!!!!!!!!!!!!!!!!!!!!!!!!!!!!!!!!!!!!!!!!!!!!!!!!!!!!!!!!!!!!!!!!!!!!!!!!!!!!!!!!!!!!!!!!!!!!!!!!!!!!!!!!!!!!!!!!!!!!!!!!!!!",
"QQQQQQQQQQQQQQQQQQQQQQQQQQQQQQQQQQQQQQQQQQQQQQQQQQQQQQQQQQQQQQQQQQQQQQQQQQQQQQQQQQQQQQQQQQQQQQQQQQQQQQQQQQQQQQQQQQQQQQQQQQQQQQQQ",
"QQQQQQQQQQQQQQQQQQQQQQQQQQQQQQQQQQQQQQQQQQQQQQQQQQQQQQQQQQQQQQQQQQQQQQQQQQQQQQQQQQQQQQQQQQQQQQQQQQQQQQQQQQQQQQQQQQQQQQQQQQQQQQQQ",
"QQQQQQQQQQQQQQQQQQQQQQQQQQQQQQQQQQQQQQQQQQQQQQQQQQQQQQQQQQQQQQQQQQQQQQQQQQQQQQQQQQQQQQQQQQQQQQQQQQQQQQQQQQQQQQQQQQQQQQQQQQQQQQQQ",
"QQQQQQQQQQQQQQQQQQQQQQQQQQQQQQQQQQQQQQQQQQQQQQQQQQQQQQQQQQQQQQQQQQQQQQQQQQQQQQQQQQQQQQQQQQQQQQQQQQQQQQQQQQQQQQQQQQQQQQQQQQQQQQQQ",
"QQQQQQQQQQQQQQQQQQQQQQQQQQQQQQQQQQQQQQQQQQQQQQQQQQQQQQQQQQQQQQQQQQQQQQQQQQQQQQQQQQQQQQQQQQQQQQQQQQQQQQQQQQQQQQQQQQQQQQQQQQQQQQQQ",
"QQQQQQQQQQQQQQQQQQQQQQQQQQQQQQQQQQQQQQQQQQQQQQQQQQQQQQQQQQQQQQQQQQQQQQQQQQQQQQQQQQQQQQQQQQQQQQQQQQQQQQQQQQQQQQQQQQQQQQQQQQQQQQQQ",
"QQQQQQQQQQQQQQQQQQQQQQQQQQQQQQQQQQQQQQQQQQQQQQQQQQQQQQQQQQQQQQQQQQQQQQQQQQQQQQQQQQQQQQQQQQQQQQQQQQQQQQQQQQQQQQQQQQQQQQQQQQQQQQQQ",
"QQQQQQQQQQQQQQQQQQQQQQQQQQQQQQQQQQQQQQQQQQQQQQQQQQQQQQQQQQQQQQQQQQQQQQQQQQQQQQQQQQQQQQQQQQQQQQQQQQQQQQQQQQQQQQQQQQQQQQQQQQQQQQQQ",
"QQQQQQQQQQQQQQQQQQQQQQQQQQQQQQQQQQQQQQQQQQQQQQQQQQQQQQQQQQQQQQQQQQQQQQQQQQQQQQQQQQQQQQQQQQQQQQQQQQQQQQQQQQQQQQQQQQQQQQQQQQQQQQQQ",
"QQQQQQQQQQQQQQQQQQQQQQQQQQQQQQQQQQQQQQQQQQQQQQQQQQQQQQQQQQQQQQQQQQQQQQQQQQQQQQQQQQQQQQQQQQQQQQQQQQQQQQQQQQQQQQQQQQQQQQQQQQQQQQQQ",
"QQQQQQQQQQQQQQQQQQQQQQQQQQQQQQQQQQQQQQQQQQQQQQQQQQQQQQQQQQQQQQQQQQQQQQQQQQQQQQQQQQQQQQQQQQQQQQQQQQQQQQQQQQQQQQQQQQQQQQQQQQQQQQQQ",
"QQQQQQQQQQQQQQQQQQQQQQQQQQQQQQQQQQQQQQQQQQQQQQQQQQQQQQQQQQQQQQQQQQQQQQQQQQQQQQQQQQQQQQQQQQQQQQQQQQQQQQQQQQQQQQQQQQQQQQQQQQQQQQQW",
"RQQQQQQQQQQQQQQQQQQQQQQQQQQQQEQQQQQQQQQQQQQQQQQQQQQQQQQQQQQQQQQQQQQQQQQQQQQQEQQQQQQQQQQQQQQQQQQQQQQQTQQQQQQQQQQQQQQQQQQQQQQQQQQH",
"FQQQQQQQQQQQQQQQQQQQQQQQQQQQQGQQQQQQQQQQQQQQQQQQQQQQQQQQQQQQQQQQQQQQQQQQQQQQGQQQQQQQQQQQQQQQQQQQQQQQZQQQQQQQQQQQQQQQQQQQQQQQQQWm",
"bUQQQQQQQQQQQQQQJQQQQQQQQQQQRbEQQQQQQQQQQQQQQQQQQQQQJPQQQQQQQQQLWQQQQQQQQQQWmUQQQQQQQQQQQQQQQQQQQQQYvLQQQQQQQQQQQQQQQQQQQQQQQQGv",
"vbDIUHZWQQQQQQQKvPQQQQQQQQQQCvDQQQQQQQQQQQWRQQQQQQQRnmRQQQQQQQYbDQQQQQQQQQQDvCQQQQQQQQQQQQTQQQQQQQENvmRQQQQQQQRWQQQQQQQQQQQQQEnv",
"vvvvvvvBYQQQQWFbvbUQQQQQQQQSvvvPQQQQQQQQQQAmPQQQQQPmvvmPQQQQQJnvvHQQQQQQQQHvvvFQQQQQQQQQQGbGWQQQQUNvvvmPQQQQQKnZWQQQQQQQQQQQWCvv",
"xvvvvvvvvVDFAmvvvvbDEQQQQYVvvvvbHQQQQQQQEZvvvNSFSNvvvvvvNSFSMvvvvvZRQQQQRZvvvvvDWQQQQQQWFvvvmAFDBvvvvvvvNSFSNvvvBTQQQQQQQQQRCvvx",
"zvvvvvvvvvvvvvvvvvvvbBZCmvvvvvzvvBJRQWTFmvvvvvvvvvvvvvvvvvvvvvvvvvvvNZZNvvvvvvvvmHRQQRHNvvzvvvvvvvvvvvvvvvvvvvvvvvZUQQQQWUAbvvvj",
"=vvvvvvvvvvvvvvvvvvvvvvvvvvvvvyvvvvvvvvvvvvvvvvvvvvvvvvvvvvvxvvvvvvvvvvvvvvvvvvvvvvvvvvvvvyvvvvvvvvvvvvvvvvvvvvvvvvvbBCBbvvvvvvr",
"exvvvvvvvvvvvvvvvvvvvvvvvvvvvg6zvvvvvvvvvvvvvvjzvvvvvvvvvvvvrxvvvvvvvvvvvvvvvvvvvvvvvvvvvz6zvvvvvvvvvvvvvvjzvvvvvvvvvvvvvvvvvvh6",
"7*vvvvvvvvvvvvvvvvvvvvvvvvvvv%1yvvvvvvvvvvvvvxervvvvvvvvvvvh6;vvvvvvvvvvvvvvvvvvvvvvvvvvvy7rvvvvvvvvvvvvvvervvvvvvvvvvvkcvvvz*6q",
"q6=vvvvvvvvv==vvvvvvvvvvvvvvf#66hvvvvvvvvvvvv;66;vvvvvvvvvh666*vvvvvvvvvh*vvvvvvvvvvvvvvj6i6hvvvvvvvvvvvv*66yxvvvvvvvvf26ere666i",
"a66rzvvvvvcr66kvvvvvvvvvvvvc22s76hvvvvvvvvvv;6q66ecvvvvvzy66i66rcvvvvvzr66hvvvvvvvvvvvvc57s76=vvvvvvvvvv*6776ejvvvvvl&#2666666qs",
"dq666ey*ye66666=vvvvvvvvvvh56idi66rzvvvvvvje66pi666ey*;e666qdi666ey*;e66666=vvvvvvvvvvk56idi66rcvvvvvvje66pi666ey*;-##$776666qsd",
"dsq666666666qq66ekxvvvvvjr66qddsq666e;=*y4666iddq666666666qsddq666666666qq66ehxvvvvvjr66qsddq666e;==ye666qddi666666662qsspiiaddd",
"dddi7666667idsq6665ryyr56667sdddsq6666666666qddddi7666666isddddi7666666issq6665eyyr56667adddsq6666666666qsdddp7666666qsddddddddd",
"ddddsiqq220pddsq6666666666qsdddddsi76666667iddddddspiqqisdddddddspiqqisdddsq6666666666qaddddddi76666667iddddddspiqqisddddddddddd",
"ddddddd09999sdddi76666667isddddddddsiqqqipsdddddddddddddddddddddddddddddddddp76666667isddddddddspqqqipsddddddddddddddddddddddddd",
"ddddddd99999udddddaiiiipddddddddddddddddddddddddddddddddddddddddddddddddddddddaiiiipsddddddddddddddddddddddddddddddddddddddddddd",
"ddddddd99999pddddddddddddddddddddddddddddddddddddddddddddddddddddddddddddddddddddddddddddddddddddddddddddddddddddddddddddddddddd",
"dddddddp9990sdddddddddddddddddddddddddddddddddddddddddddddddddddda00sddddddddddddddddddddda09tddddddddstuddddddddddddddddddddddd",
"ddddddddatusddddddddddddddddddddddddddddddddddsppsddddddddddddddd0990ddddddddddddddddddds939993pddddddp99sdddddddddddddddddddddd",
"dddddddddddddddddddddddddddddddddddddddddddddt9999tdddddddddddddd099tdddddddddddddddddds39999993uddddds00ddddddddddspsdddddddddd",
"ddddddddddddddddddddddddddddddddddddddddddddt999999tdddddddddddddsttsddddddddddddddddds3999999993pddddddddddddddddt999sddddddddd",
"ddddddddddddddddddddddddddddddp000udddddddds99999999sddddddddddddddddddddddddddddddddd399999999993ddddddddddddddds9999tddddddddd",
"ddddddddddddddddddddddddddddt3999998dddddddp99999999pdddddddddddddddddddddddddddddddd09999999999990dddddddddddddda99990ddddddddd",
"099899wsddddddddddddddddddd9999999990ddddddp99999999udddddddddddddddddddt999tsddddddu39999999999993pdddddddddddddd0999pdddddddda",
"999999939addddddddddddddds399999999990ddddds99999999adddddddddddddddddd0999990ddddds3999999999999998ddddddddddddddsttpddddst0989",
"99999999930dddddddddddddp39999999990080ddddd09999990ddddddddddddddddddp9999999pdddd89999999999999999pddddddddddddddddddddp999999",
"999999999990ddddddddddd039999999999ss930dddds099990sdddddddddddddddddd099999990ddd0999999999999999993dddddddddddddddddddt9999999",
"9999999999998sddddddds8999999999999tt9980dddddpttpdddddddddddddddddddd099999990ddp3999999sd09999999999dddddddddddddddddp39999999",
"999999999999930sdddp9399999999999999999990ddddddddddddddddddddddddddddt9999999tdd39999990ddt99999999993addddddddddddddd399999999",
"9999999999999998333999999999999999999999998ddddddddddddddddddddddddddds9999999sd9999999990t99999999999930ddddddddddddd0999999999",
"99999999999999999999999999999999999999999993sdddddddddddddddt90tddddddda09999adw999999999999999999999999930dddddddddds3999999999",
"999999999999999999999999999999999999999999993tdddddddddddd03999930dddddddpupsdu399999999999999999999999999939pdddddds8990u099999",
"999999999999999999999999999999999993<3999999999sddddddddt3999999993sdddddddddp399999999999999999999999999999993800093999pds99999",
"9999999999999999999999999999999999<+++>9999999930sddddp3999999999993tdddddddt3999999999999999999999999999999999999999999tdp99999",
"9999999999999999uds099999999999999+++++<99999999983883990sdp9999999989adddp89999999999999999999999999999999999999999999999999999",
"9999999999999999dddu99999999999993+++++<9999999999999999sdddt999999999833399999999993:++:399999999999999999999999999999999999999",
"9999999999999999sddt99999999999999+++++<9999999999999990ddddp99999999999999999999993++++++39999999999999999999999999999999999999",
"99999999999999999t0999999999999999<+++,99999999999999999addd09999999999999999999999:++++++:9999999999999999999999999999999999999",
"999999999999999999999999999999999999339999999999999999999up099999999999999999999993++++++++3999999999999999999999999999999999999",
"9999993<<39999999999999999999999999999999999999999999999999999999999999999999999993++++++++3999<:+:39999999999999999999999999999",
"999993++++3999999999999999999999999999999999999999999999999999999999999999999999999++++++++9993++++@99999999999999<:<99999999999",
"99999>++++,9999999999999999999999999999999999999999999999999999999999<++<9999999999<++++++<999<+++++39999999999999+++39999999999",
"99999:++++>9999999999999999999999999999999999999999999999999999999999++++39999999999,++++<9999<+++++39999999999999:++39999999999",
"99999,++++<9999999999999999999999999999999999999999999999999999999999++++3999999999993<<8999998++++:999999999999993<399999999999",
"999999>++,99999999999999999999999999999999999999999999999999999999999<++,99999999999999999999993>:,89999999999999999999999999999",
"99999999999999999999999999999999999999999999999999999999999999999999998399999999999999999999999999999999999999999999999999999999",
"9999999999999993<,,<999999999999993<39999999999999999999999999999999999999999999999999999999999999999999999999999999999999999999",
"99999999999999<++++++<99999999993>++++<9999999999993339999999999999999999999999999999999999999999999999999999<:+:399999999999999",
"9999999999999,++++++++<999999993@++++++>999999999<:+++>39999999999999999999999999999999999999999999999999999,+++++39999999999999",
"9999999999993++++++++++39999993:++++++++>9999999<++++++:9999999999999999999999999999999999999999999999999999++++++,9999999999999",
"999999999999>++++++++++<999999>++++++++++,999999++++++++,9999999999999999<:++:399999999999999933399999999999++++++>9999999999999",
"999999999999:++++++++++>99999<++++++++++++<99993++++++++:999999999999999,++++++<999999999999<+++++>399999999++++++,9999999999999",
"999999999999:++++++++++:99993++++++++++++++3999<+++++++++99999999999999<++++++++<9999999999<++++++++<9999999<+++++39999999999999",
":::><9999999:++++++++++,9999,+++,<:++++++++:9993++++++++:99999999999999:++++++++:9999999993++++++++++,9999999<::>3999999993<,>::",
"+++++:399999<++++++++++39993+++3999>++++++++,999:+++++++<99999999999999++++++++++999999993++++++++++++:89999999999999993,+++++++",
"+++++++<99999:++++++++:9999>++:99993+++++++++3993++++++>999999999999993++++++++++99999993++++++++++++++:39999999999993>+++++++++",
"++++++++399993@++++++:3999<+++:9999<++++++++++8993>++:<9999999999999999+++++++++:999999<+++++++++++++++++<9999999999,+++++++++++",
"++++++++>999998,:++:<9999,+++++3999:++++++++++>999999999999999999999999,++++++++<99999<+++++++++++++++++++:<999999<+++++++++++++",
"+++++++++<99999999999993:+++++++>,:++++++++++++<999999999999999999999999:++++++:99999<+++++++++++:<3<:+++++++:>::+++++++++++++++",
"+++++++++:999999999993>+++++++++++++++++++++++++39999999999999993<<399999>++++,99999,+++++++++++:99999:+++++++++++++++++++++++++",
"++++++++++,99999999<:++++++++++++++++++++++++++++39999999999993:++++:39999933999993:++++++++++++3999993+++++++++++++++++++++++++",
"+++++++++++:<33<<>+++++++++++++++++++++++++++++++:39999999999,++++++++>3999999999<++++++++++++++9999999+++++++++++++++:+++++++++",
"++++39<+++++++++++++++++++++++++++++++++++++++++++:399999993:+++++++++++,999999<:+++++++++++++++9999999++++++++++++++393++++++++",
"+++<999<+++++++++++++++++++++oo+++++++++++++++++++++<99999<+++++++++++++++><<>@+++++++++++++++++<99999<+++++++++++++,999,+++++++",
"+++3999<+++++++++++++++++++++..+++++++++++++++++++++++>,>+++++++++,<+++++++++++++++++++++++++++++<999<++++++++++++++>999,+++++++",
"+++>999:+++++++++++++++++++++++++++++++++++++++++++++++++++++++++:99:+++++++++++++++++++@++++++++++:+++++++++++++++++<3<++++++++",
"++++:,:+++++++++++++++++++++++++++++++++++++++++++++++++++++++++++<3+++++++++++++++++++<99:+++++++++++++++++++++++++++++++++++++",
"+++++++++++++++++++++++++++++++++++++++++++++++++++++++++++++++++++++++++++++++++++++++999<+++++++++++++++++++++++++++++++++++++",
"+++++++++++++++++++++++++++++++++++++++++++++++++++++++++++++++++++++++++++++++++++++++<99>+++++++++++++++++++++++++++++++++++++",
"++++++++++++++++++++++++++++++++++++++++++++++++++++++++++++++++++++++++++++++++++++++++>:++++++++++++++++++++++++++++++++++++++",
"+++++++++++++++++++,83:+++++++++++++++++++++++++++@+++++++++++++++++Oooo++++++++++++++++++++++++++++++++++++++++++++++++++++++++",
"++++++++++++++++++>9999++++++++++++++++++++++++++<9<+++++++++++++++O    o+++++++++++++++++++++++++++++++++++++++++++++++++++++++",
"++++++++++++++++++<9999:+++++++++++++++++++++++++393+++++++++++++++X     O++++++++++++++++++++++++++++++++++++++++++++++++++++++",
"++++++++++++++++++>9999++++++++++++++++++++++++++:<:+++++++++++++++.     O++++++++++++++++++++++++++++++++++++++++++++++++++++++",
"+++++++++++++++++++,33:++++++++++++++++++++++++++++++++++++++++++++X     +++++++++++++++++++++++++++++++++++++++++++++++++++++++",
"+++++++++++++++++++++++++++++++++++++++++++++++++++++++++++++++++++O.   o+++++++++++++++++++++++++++++++++++++++++++++++++++++++",
"+++++++++++++++++++++++++++++++++++++++++++++++++++++++++++++++++++++ooO++++++++++++++++++++++++++++++++++++++++++++++++++++++++",
"++++++++++++++++++++++++++++++++++++++++++++++++++++++++++++++++++++++++++++++++++++++++++++++++++++++++++++++++++++++++++++++++",
"++++++++++++++++++++++++++++++++++++++++o.  .XO+++++++++++++++++++++++++++++++++++++++++++++++++++++++++++++++++++++++++++++++++",
"++++++++++++++++++++++++++++++++++++++o.       o++++++++++++++++++++++++++++++++++++++++++++++++++++++++++++++++++++++++++++++++",
"+++++++++++++++++++++++++++++++++++++o          X+++++++++++++++++++++++++++++++++++++++++++++++++++++++++++++++++++++++++++++++",
"+++++++++++++++++++++++++++++++++++++.           o++++++++++++++++++++++++++++++++++++++++++++++++++++++++++++++++++++++++++++++",
"++++++++++++++++++++++++++++++++++++o            .++++++++++++++++++++++++++++++++++++++++++++++++++++++++++++++++++++++++++++++",
"+++++O.  .O+++++++++++++++++++++++++.             O++++++++++++++++++++++++++++++++++++++++++++++++OO+++++++++++++++++++++++++++",
"++++O      O++++++++++++++++++++++++.             o+++++++++++++++++++++++++++++++++++++++++++++++.   o+++++++++++++++++++++++++",
"++++.      .++++++++++++++++++++++++.             o++++++++++++++++++++++++++++++++++++++++++++++o     +++++++++++++++++++++++++",
"++++.       ++++++++++++++++++++++++.             O++++++++++++++++++++++++++++++++++++++++++++++.     o+++++++++++++OoO++++++++",
"++++.       ++++++++++++++++++++++++o            .+++++++++++++++++++++++++++++++++++++++++++++++.     O++++++++++++O   O+++++++",
"++++X      .++++++++++++++++++++++++O            o+++++++++++++++++++++++++++++++++++++++++++++++o    .+++++++++++++o   O+++++++",
"++++O.     O+++++++++++++++++++++++++o          .+++++++++++++++++++++++++++++++++++++++++++++++++o...O++++++++++++++. .++++++++",
"+++++OX...O+++++++++++++++++++++++++++o        .O+++++++++++++++++++++++++++++++++++++++++++++++++++++++++++++++++++++++++++++++",
"+++++++++++++++++++++++++++++++++++++++O.    .o+++++++++++++++++++++++++++++++++++++++++++++++++++++++++++++++++++++++++++++++++",
"++++++++++++++++++++++++++++++++++++++++++OoO+++++++++++++++++++++++++++++++++++++++++++++++++++++++++++++++++++++++++++++++++++",
"++++++++++++++++++++++++++++++++++++++++++++++++++++++++++++++++++++++++++++O.  .o++++++++++++++++++++++++++++++++++++++++++++++",
"+++++++++++++++++++++++++++++++++++++++++++++++++++++++++++++++++++++++++++O      o+++++++++++++++++++++++++++++++++++++++++++++",
"+++++++++++++++++++++++++++++++++++++++++++++++++++++++++++++++++++++++++++.       +++++++++++++++++++++++++++++++++++++++++++++",
"+++++++++++++++++++++++++++++++++++++++++++++++++++++++++++++++++++++++++++        O++++++++++++++++++++++++++++++++++++++++++++",
"+++++++++++++++++++++++++++++++++++++++++++++++++++++++++++++++++++++++++++        O++++++++++++++++++++++++++++++++++++++++++++",
"+++++++++++++++++++++++++++++++++++++++++++++++++++++++++++++++++++++++++++.       +++++++++++++++++++++++++++++++++++++++++++++",
"+++++++++++++++++++++++++++++++++++++++++++++++++++++++++++++++++++++++++++O      o+++++++++++++++++++++++++++++++++++++++++++++",
"++++++++++++++++++++++++++++++++++++++++++++++++++++++++++++++++++++++++++++O.  .o++++++++++++++++++++++++++++++++++++++++++++++",
"++++++++++++++++++++++++++++++++++++++++++++++++++++++++++++++++++++++++++++++++++++++++++++++++++++++++++++++++++++++++++++++++",
"++++++++++++++++++++++++++++++++++++++++++++++++++++++++++++++++++++++++++++++++++++++++++++++++++++++++++++++++++++++++++++++++",
"++++++++++++++++++++++++++++++++++++++++++++++++++++++++++++++++++++++++++++++++++++++++++++++++++++++++++++++++++++++++++++++++",
"++++++++++++++++++++++++++++++++++++++++++++++++++++++++++++++++++++++++++++++++++++++++++++++++++++++++++++++++++++++++++++++++",
"++++++++++++++++++++++++++++++++++++++++++++++++++++++++++++++++++++++++++++++++++++++++++++++++++++++++++++++++++++++++++++++++"
};
